<?xml version="1.0" encoding="UTF-8"?>
<svg id="objects" xmlns="http://www.w3.org/2000/svg" viewBox="0 0 2200 2200">
  <defs>
    <style>
      .cls-1 {
        fill: #fff;
      }

      .cls-2 {
        fill: #2f293b;
      }
    </style>
  </defs>
  <path class="cls-2" d="m2200,1100c0,607.51-492.49,1100-1100,1100h0C492.49,2200,0,1707.51,0,1100H0C0,492.49,492.49,0,1100,0h0C1707.51,0,2200,492.49,2200,1100h0Z"/>
  <path class="cls-1" d="m1398.44,523h-596.88c-153.8,0-278.55,124.75-278.55,278.55v596.88c0,153.8,124.75,278.55,278.55,278.55h596.88c153.8,0,278.55-124.75,278.55-278.55v-596.88c0-153.8-124.75-278.55-278.55-278.55Zm179.07,855.53c0,109.83-89.13,198.96-198.96,198.96h-557.09c-109.83,0-198.96-89.14-198.96-198.96v-557.09c0-109.83,89.13-198.96,198.96-198.96h557.09c109.83,0,198.96,89.13,198.96,198.96v557.09Z"/>
  <path class="cls-1" d="m1100.56,801.55c-164.74,0-298.44,133.7-298.44,298.44s133.7,298.44,298.44,298.44,298.44-133.7,298.44-298.44-133.7-298.44-298.44-298.44Zm0,497.4c-109.63,0-198.96-89.33-198.96-198.96s89.33-198.96,198.96-198.96,198.96,89.33,198.96,198.96-89.33,198.96-198.96,198.96Z"/>
  <circle class="cls-1" cx="1418.9" cy="781.65" r="59.69"/>
</svg>