<?xml version="1.0" encoding="UTF-8"?>
<svg id="objects" xmlns="http://www.w3.org/2000/svg" viewBox="0 0 2200 2200">
  <defs>
    <style>
      .cls-1 {
        fill: #fff;
      }

      .cls-2 {
        fill: #2f293b;
      }
    </style>
  </defs>
  <path class="cls-2" d="m2200,1100c0,607.51-492.49,1100-1100,1100h0C492.49,2200,0,1707.51,0,1100H0C0,492.49,492.49,0,1100,0h0C1707.51,0,2200,492.49,2200,1100h0Z"/>
  <g>
    <circle class="cls-1" cx="710.39" cy="664.24" r="141.68"/>
    <rect class="cls-1" x="592.33" y="900.37" width="236.13" height="708.38" rx="1.91" ry="1.91"/>
    <path class="cls-1" d="m1631.29,1160.11v401.42c0,25.97-21.25,47.23-47.23,47.23h-141.68c-25.97,0-47.23-21.25-47.23-47.23v-330.58c0-65.17-52.89-118.06-118.06-118.06s-118.06,52.89-118.06,118.06v330.58c0,25.97-21.25,47.23-47.23,47.23h-141.68c-25.97,0-47.23-21.25-47.23-47.23v-613.93c0-25.97,21.25-47.23,47.23-47.23h141.68c25.97,0,47.23,21.25,47.23,47.23v30.22c47.23-61.16,125.38-101.06,212.51-101.06,130.34,0,259.74,94.45,259.74,283.35Z"/>
  </g>
</svg>