<?xml version="1.0" encoding="UTF-8"?>
<svg id="objects" xmlns="http://www.w3.org/2000/svg" viewBox="0 0 2200 2200">
  <defs>
    <style>
      .cls-1 {
        fill: #fff;
      }

      .cls-2 {
        fill: #2f293b;
      }
    </style>
  </defs>
  <path class="cls-2" d="m2200,1100c0,607.51-492.49,1100-1100,1100h0C492.49,2200,0,1707.51,0,1100H0C0,492.49,492.49,0,1100,0h0C1707.51,0,2200,492.49,2200,1100h0Z"/>
  <path class="cls-1" d="m1096.01,395.15c-339.97,11.03-620.75,286.37-637.77,626.09-6.13,122.46,20.88,238.23,73.41,338.75l-73.8,330.52c-3.12,14.95,10.12,28.19,25.08,25.08l330.52-73.8h.23c99.81,52.15,214.39,79.16,335.94,73.53,339.18-15.7,615.41-294.38,628.53-633.67,14.86-384.27-298.37-698.95-682.12-686.5Zm22,1184.22c-96.13,0-186.11-25.97-263.57-71.3-7.29-4.1-14.35-8.43-21.19-12.98l-211.17,56.27,56.27-211.17c-53.31-82.01-84.29-179.74-84.29-284.75,0-288.85,235.09-523.95,523.95-523.95s523.95,235.09,523.95,523.95-235.09,523.95-523.95,523.95Z"/>
  <path class="cls-1" d="m1428.74,1286.07c-9.14,13.7-18.73,26.49-34.03,41.8-33.58,33.58-80.17,50.48-127.45,45.68-84.74-8.68-205.1-55.5-308.56-158.73-103.46-103.46-150.29-223.83-158.74-308.56-4.8-47.28,12.11-93.87,45.68-127.45,15.3-15.3,28.09-24.9,41.8-34.26,25.35-17.13,59.84-5.71,69.43,23.07l34.72,104.15c9.59,28.55,5.25,46.59-7.08,58.7l-27.65,27.88c-13.7,13.7-15.99,34.95-5.48,51.39,15.3,23.98,44.08,62.35,97.07,115.34,52.99,52.99,91.36,81.77,115.34,97.07,16.44,10.51,37.68,8.22,51.39-5.48l27.88-27.65c12.11-12.33,30.15-16.67,58.7-7.08l104.15,34.72c28.78,9.59,40.2,44.08,22.84,69.43Z"/>
</svg>